<svg xmlns="http://www.w3.org/2000/svg" width="24" height="24" fill="none" viewBox="0 0 24 24"><path stroke="#fff" stroke-linecap="round" stroke-linejoin="round" stroke-width="1.5" d="M14.55 2H9.45001C7.65001 2 7.25002 2.90001 7.02002 4.01001L6.20001 7.92999H17.8L16.98 4.01001C16.75 2.90001 16.35 2 14.55 2Z"/><path stroke="#fff" stroke-linecap="round" stroke-linejoin="round" stroke-width="1.5" d="M19.24 14.32C19.32 15.17 18.64 15.9 17.77 15.9H16.41C15.63 15.9 15.52 15.57 15.38 15.15L15.23 14.72C15.03 14.13 14.9 13.73 13.85 13.73H10.14C9.09999 13.73 8.93999 14.18 8.75999 14.72L8.60999 15.15C8.46999 15.56 8.35999 15.9 7.57999 15.9H6.21999C5.34999 15.9 4.66999 15.17 4.74999 14.32L5.16 9.90002C5.26 8.81002 5.46999 7.91998 7.36999 7.91998H16.62C18.52 7.91998 18.73 8.81002 18.83 9.90002L19.24 14.32Z"/><path stroke="#fff" stroke-linecap="round" stroke-linejoin="round" stroke-width="1.5" d="M6.19997 5.75H5.46997"/><path stroke="#fff" stroke-linecap="round" stroke-linejoin="round" stroke-width="1.5" d="M18.53 5.75H17.8"/><path stroke="#fff" stroke-linecap="round" stroke-linejoin="round" stroke-width="1.5" d="M7.65002 10.83H9.82004"/><path stroke="#fff" stroke-linecap="round" stroke-linejoin="round" stroke-width="1.5" d="M14.18 10.83H16.35"/><path stroke="#fff" stroke-linecap="round" stroke-linejoin="round" stroke-width="1.5" d="M12 17V18"/><path stroke="#fff" stroke-linecap="round" stroke-linejoin="round" stroke-width="1.5" d="M12 21V22"/><path stroke="#fff" stroke-linecap="round" stroke-linejoin="round" stroke-width="1.5" d="M3 18L2 22"/><path stroke="#fff" stroke-linecap="round" stroke-linejoin="round" stroke-width="1.5" d="M21 18L22 22"/></svg>